<?xml version="1.0" standalone="no"?><!DOCTYPE svg PUBLIC "-//W3C//DTD SVG 1.1//EN" "http://www.w3.org/Graphics/SVG/1.1/DTD/svg11.dtd"><svg t="1569459903358" class="icon" viewBox="0 0 1024 1024" version="1.1" xmlns="http://www.w3.org/2000/svg" p-id="6619" xmlns:xlink="http://www.w3.org/1999/xlink" width="128" height="128"><defs><style type="text/css"></style></defs><path d="M754.492952 940.81219l40.326096 5.168762c4.87619 0 4.87619 0 4.87619-4.87619 0 0 63.390476-477.866667 97.52381-716.8v-9.752381c0-4.87619-9.752381-4.87619-9.752381-4.876191a19554.986667 19554.986667 0 0 0-112.298667-14.384761M785.066667 1004.495238l-103.66781-12.531809 69.339429-44.373334 49.493333 11.897905m-21.113905-832.365714L897.219048 141.409524c19.504762 0 34.133333 9.752381 43.885714 24.380952 9.752381 14.628571 14.628571 29.257143 14.628571 48.761905l-97.523809 731.428571c-4.87619 34.133333-34.133333 58.514286-68.266667 58.514286h-4.87619" p-id="6620" fill="#BFCBD9"></path><path d="M804.571429 102.4c0-39.009524-29.257143-68.266667-68.266667-68.266667H117.028571C78.019048 34.133333 48.761905 63.390476 48.761905 102.4V926.47619c0 39.009524 29.257143 68.266667 68.266666 68.266667h619.276191c39.009524 0 68.266667-29.257143 68.266667-68.266667V102.4zM746.057143 926.47619c0 4.87619-4.87619 9.752381-9.752381 9.752381H117.028571c-4.87619 0-9.752381-4.87619-9.752381-9.752381V102.4c0-4.87619 4.87619-9.752381 9.752381-9.752381h619.276191c4.87619 0 9.752381 4.87619 9.752381 9.752381V926.47619z" p-id="6621" fill="#BFCBD9"></path><path d="M224.304762 209.67619H633.904762c14.628571 0 29.257143 14.628571 29.257143 29.257143s-14.628571 29.257143-29.257143 29.257143H224.304762c-14.628571 0-29.257143-14.628571-29.257143-29.257143s14.628571-29.257143 29.257143-29.257143M224.304762 482.742857h302.323809c14.628571 0 29.257143 14.628571 29.257143 29.257143s-14.628571 29.257143-29.257143 29.257143H224.304762c-14.628571 0-29.257143-14.628571-29.257143-29.257143s14.628571-29.257143 29.257143-29.257143M224.304762 755.809524h156.038095c14.628571 0 29.257143 14.628571 29.257143 29.257143s-14.628571 29.257143-29.257143 29.257143H224.304762c-14.628571 0-29.257143-14.628571-29.257143-29.257143 0-19.504762 14.628571-29.257143 29.257143-29.257143" p-id="6622" fill="#BFCBD9"></path></svg>