<?xml version="1.0" standalone="no"?><!DOCTYPE svg PUBLIC "-//W3C//DTD SVG 1.1//EN" "http://www.w3.org/Graphics/SVG/1.1/DTD/svg11.dtd"><svg t="1569459694453" class="icon" viewBox="0 0 1024 1024" version="1.1" xmlns="http://www.w3.org/2000/svg" p-id="2311" xmlns:xlink="http://www.w3.org/1999/xlink" width="128" height="128"><defs><style type="text/css"></style></defs><path d="M371.6351 107.798c13.653 0 24.688 11.264 24.688 25.087v277.602c0 13.824-11.035 25.03-24.688 25.03H98.1281a24.973 24.973 0 0 1-24.745-25.03V132.885c0-13.823 11.093-25.03 24.745-25.03h273.507z m0-74.52H98.1281c-26.053 0-50.97 10.524-69.4 29.24A100.346 100.346 0 0 0 0.0001 132.884v277.602c0 26.395 10.353 51.766 28.727 70.368 18.43 18.715 43.347 29.182 69.4 29.182h273.507c54.212 0 98.128-44.598 98.128-99.55V132.885c0-26.395-10.353-51.766-28.727-70.368a97.388 97.388 0 0 0-69.401-29.182zM767.6171 74.52a24.46 24.46 0 0 1 17.464 7.395L943.2801 242.447c9.67 9.784 9.67 25.655 0 35.497L785.1371 438.475a24.46 24.46 0 0 1-34.984 0l-158.2-160.588a25.371 25.371 0 0 1 0-35.497L750.0961 81.915a24.46 24.46 0 0 1 17.52-7.395z m0-74.463c-26.054 0-50.97 10.467-69.401 29.182L540.0741 189.771a100.346 100.346 0 0 0-28.785 70.367c0 26.452 10.354 51.766 28.728 70.425l158.199 160.588a97.104 97.104 0 0 0 138.801 0L995.1601 330.62c18.43-18.716 28.784-44.03 28.784-70.425 0-26.395-10.354-51.766-28.728-70.424L837.0171 29.239a97.104 97.104 0 0 0-69.4-29.182z m-395.982 621.76c13.653 0 24.688 11.207 24.688 25.03V924.45c0 13.823-11.035 25.03-24.688 25.03H98.1281a24.916 24.916 0 0 1-24.745-25.03V646.848c0-13.824 11.093-25.03 24.745-25.03h273.507z m0-74.52H98.1281c-26.053 0-50.97 10.468-69.4 29.126A100.346 100.346 0 0 0 0.0001 646.848V924.45C0.0001 979.402 43.9161 1024 98.1281 1024h273.507c25.997 0 50.97-10.467 69.4-29.182 18.375-18.659 28.728-43.973 28.728-70.368V646.848c0-26.395-10.353-51.766-28.727-70.425a97.388 97.388 0 0 0-69.401-29.125z m508.9 74.52c13.652 0 24.688 11.207 24.688 25.03V924.45c0 13.823-11.036 25.03-24.688 25.03H606.9701a24.916 24.916 0 0 1-24.745-25.03V646.848c0-13.824 11.093-25.03 24.745-25.03h273.507z m0-74.52H606.9701c-26.053 0-50.97 10.468-69.4 29.126a100.346 100.346 0 0 0-28.728 70.425V924.45c0 54.952 43.916 99.55 98.128 99.55h273.507c54.155 0 98.128-44.598 98.128-99.55V646.848c0-26.395-10.353-51.766-28.784-70.425a97.388 97.388 0 0 0-69.401-29.125z" p-id="2312" fill="#BFCBD9"></path></svg>