<?xml version="1.0" standalone="no"?><!DOCTYPE svg PUBLIC "-//W3C//DTD SVG 1.1//EN" "http://www.w3.org/Graphics/SVG/1.1/DTD/svg11.dtd"><svg t="1569459524012" class="icon" viewBox="0 0 1024 1024" version="1.1" xmlns="http://www.w3.org/2000/svg" p-id="1305" width="128" height="128" xmlns:xlink="http://www.w3.org/1999/xlink"><defs><style type="text/css"></style></defs><path d="M281.92 100.8a79.36 79.36 0 0 0-79.104 79.488v151.936H360.96V180.288a79.36 79.36 0 0 0-79.104-79.488z m32.192 184.32H250.88V180.288c0-17.664 14.08-32 31.68-32s31.616 14.336 31.616 32v104.832zM502.272 100.8a79.36 79.36 0 0 0-79.104 79.488v151.936h158.208V180.288a79.36 79.36 0 0 0-79.104-79.488z m32.256 184.32H470.016V180.288a32.32 32.32 0 0 1 64.512 0v104.832zM281.92 383.296a79.36 79.36 0 0 0-79.104 79.552v340.288H360.96V462.848a79.36 79.36 0 0 0-79.104-79.552z m32.192 371.584H250.88V462.848c0-17.728 14.08-32.064 31.68-32.064s31.616 14.336 31.616 32v292.096zM502.272 383.296a79.36 79.36 0 0 0-79.104 79.552v340.288h158.208V462.848a79.36 79.36 0 0 0-79.104-79.552z m32.256 371.584H470.016V462.848a32.32 32.32 0 0 1 64.512 0v292.032z" p-id="1306" fill="#BFCBD9"></path><path d="M1001.216 876.16h-56.512V243.2c0-72-56.192-131.2-127.872-131.2h-126.656C681.024 49.728 626.816 0.256 561.6 0.256H225.984c-71.68 0-131.008 59.52-131.008 131.456V876.16H25.152a25.792 25.792 0 0 0-25.152 24.64v99.712c0 13.12 12.096 22.848 25.152 22.848h976c13.12 0 22.144-9.728 22.144-22.848v-99.712c0-13.12-9.024-24.64-22.08-24.64zM897.856 243.2v632.96h-207.488V159.168h126.464c45.632 0 81.024 38.272 81.024 84.032zM141.824 131.648c0-45.824 38.592-84.352 84.16-84.352h335.616c45.632 0 80.704 38.528 80.704 84.352V876.16h-500.48V131.648z m834.56 844.608H46.912v-52.992h929.472v52.992z" p-id="1307" fill="#BFCBD9"></path></svg>