<?xml version="1.0" standalone="no"?><!DOCTYPE svg PUBLIC "-//W3C//DTD SVG 1.1//EN" "http://www.w3.org/Graphics/SVG/1.1/DTD/svg11.dtd"><svg t="1569460004200" class="icon" viewBox="0 0 1024 1024" version="1.1" xmlns="http://www.w3.org/2000/svg" p-id="7402" xmlns:xlink="http://www.w3.org/1999/xlink" width="128" height="128"><defs><style type="text/css"></style></defs><path d="M247.198543 429.649434c-36.614919 0-66.292845-29.352515-66.292845-65.810868 0-36.307927 29.677926-65.820078 66.292845-65.820078 36.453237 0 66.113767 29.512151 66.113767 65.820078C313.313334 400.296919 283.65178 429.649434 247.198543 429.649434zM301.726437 601.908706l99.032504-167.929664 98.883101 104.742553 136.103818-215.214597 142.290727 370.178971L147.078265 693.685969l80.493266-168.868035L301.726437 601.908706zM809.87062 199.293999 114.642528 199.293999l0 526.679327 695.228091 0L809.87062 199.293999zM809.87062 791.783171 114.642528 791.783171c-36.467563 0-66.129116-29.509081-66.129116-65.810868L48.513412 199.293999c0-36.301787 29.66053-65.811892 66.129116-65.811892l695.228091 0c36.602639 0 66.26317 29.510104 66.26317 65.811892l0 526.679327C876.133789 762.27409 846.472236 791.783171 809.87062 791.783171zM909.207046 890.517893 213.978954 890.517893c-36.453237 0-66.113767-29.511127-66.113767-65.811892l695.228091 0c36.450167 0 66.113767-29.512151 66.113767-65.825195L909.207046 232.207619c36.616966 0 66.278519 29.501918 66.278519 65.810868l0 526.686491C975.485565 861.006765 945.824011 890.517893 909.207046 890.517893z" p-id="7403" fill="#BFCBD9"></path></svg>