<?xml version="1.0" standalone="no"?><!DOCTYPE svg PUBLIC "-//W3C//DTD SVG 1.1//EN" "http://www.w3.org/Graphics/SVG/1.1/DTD/svg11.dtd"><svg t="1569459843216" class="icon" viewBox="0 0 1024 1024" version="1.1" xmlns="http://www.w3.org/2000/svg" p-id="5220" xmlns:xlink="http://www.w3.org/1999/xlink" width="128" height="128"><defs><style type="text/css"></style></defs><path d="M885.76 47.104H136.704c-47.616 0-87.552 39.424-87.552 87.552v747.008c0 48.128 39.424 87.552 87.552 87.552h747.52c48.128 0 87.552-39.424 87.552-87.552V135.168c1.536-48.128-37.888-88.064-86.016-88.064z m0 867.328H136.704c-9.216 0-17.408-4.096-23.04-9.728-1.536-1.536-2.56-3.072-4.096-5.12s-2.048-4.096-2.56-5.632c-1.536-4.096-2.048-8.192-2.048-12.288V134.656c0-18.432 15.36-32.256 32.256-32.256h747.52c18.432 0 32.256 15.36 32.256 32.256l0.512 747.52c0 18.944-14.336 32.256-31.744 32.256z" p-id="5221" fill="#BFCBD9"></path><path d="M147.456 520.704h301.056v323.584H147.456zM371.712 349.184v-56.32h90.112v-34.304H371.712v-46.08h98.304v-34.304H336.384v205.312h136.192l-0.512-34.304zM186.88 249.344L260.608 384h35.84V178.176h-33.28v136.704L189.952 178.176h-34.304L155.136 384h31.744zM829.44 342.528c-7.68 6.144-16.896 9.216-26.112 8.192-9.728 1.024-18.432-2.56-26.112-9.216-7.68-8.192-12.288-18.432-13.312-30.208l-34.816 3.072c1.024 20.48 8.704 38.4 21.504 52.736 14.336 13.312 33.28 20.48 51.712 18.432 13.312 0 26.624-2.56 38.912-8.192 9.728-5.12 17.92-12.8 24.064-23.552 5.12-9.728 8.704-21.504 8.704-33.28 0.512-11.776-2.048-23.552-7.168-33.28-5.12-8.704-12.288-15.872-20.48-20.992-12.288-7.168-25.088-12.8-38.912-15.872-11.264-2.048-22.528-6.656-32.768-13.312-2.56-3.072-4.608-7.168-4.608-12.288s2.048-9.728 5.632-12.288c7.68-5.12 16.384-7.168 25.088-6.656 8.192-0.512 15.872 2.048 23.04 6.656 4.608 6.656 8.704 14.848 9.728 23.552l35.84-2.048c-0.512-17.408-7.168-33.28-17.92-44.544-14.336-12.8-32.768-18.944-50.688-17.408-11.776 0-23.552 2.048-34.816 6.656-9.216 4.096-15.872 11.776-21.504 20.992-5.12 8.704-8.704 18.944-8.704 30.208 0 15.872 6.656 30.72 16.896 40.96 12.288 10.24 26.112 17.408 40.96 20.992l28.672 9.728c5.12 2.048 9.728 5.12 13.312 9.216 3.072 2.56 4.096 8.192 1.536 11.776 0.512 8.192-2.56 15.872-7.68 19.968zM497.152 778.24h376.832v65.024H497.152zM497.152 521.216h376.832v65.024H497.152zM602.624 229.376l34.816 154.624h38.4l44.032-205.824h-35.84l-28.16 143.872-31.232-143.872h-42.496l-32.256 141.824-27.648-141.824h-37.376l41.472 205.824h40.448zM497.152 650.24h376.832v65.024H497.152z" p-id="5222" fill="#BFCBD9"></path></svg>